<?xml version="1.0" encoding="UTF-8"?>
<svg  viewBox="0 0 72 72" version="1.1" xmlns="http://www.w3.org/2000/svg" xmlns:xlink="http://www.w3.org/1999/xlink">
    <!-- Generator: Sketch 49.2 (51160) - http://www.bohemiancoding.com/sketch -->
    <title>Medium</title>
    <desc>Created with Sketch.</desc>
    <defs></defs>
    <g id="Page-1" stroke="none" stroke-width="1" fill="none" fill-rule="evenodd">
        <g id="Social-Icons---Rounded" transform="translate(-40.000000, -491.000000)">
            <g id="Medium" transform="translate(40.000000, 491.000000)">
                <path d="M8,72 L64,72 C68.418278,72 72,68.418278 72,64 L72,8 C72,3.581722 68.418278,-8.11624501e-16 64,0 L8,0 C3.581722,8.11624501e-16 -5.41083001e-16,3.581722 0,8 L0,64 C5.41083001e-16,68.418278 3.581722,72 8,72 Z" id="Rounded" fill="#ECECEC"></path>
                <g transform="translate(12.000000, 16.000000)">
                    <path d="M33.1861132,0.487444444 C32.4643019,0.124366667 31.8738113,0.491544444 31.8738113,1.30334444 L31.8738113,33.5972222 L45.0461887,40.2232778 C46.4956981,40.9521667 47.6707925,40.4419444 47.6707925,39.0834778 L47.6707925,7.98543333 C47.6707925,7.8556 47.597434,7.73624444 47.4819623,7.67793333 L33.1861132,0.487444444" id="Fill-1" fill="#00FC87"></path>
                    <path d="M16.077283,25.6514222 L31.1049057,1.08422222 C31.5278491,0.392688889 32.4643019,0.124366667 33.1861132,0.487444444 L47.4982642,7.68613333 C47.5910943,7.73305556 47.6241509,7.84967778 47.5698113,7.93851111 L31.8738113,33.5972222 L16.077283,25.6514222" id="Fill-2" fill="#00E468"></path>
                    <path d="M2.4674717,0.927511111 C1.26430189,0.322077778 0.856754717,0.769888889 1.56181132,1.92244444 L16.077283,25.6514222 L31.8738113,33.5972222 L16.1112453,7.82872222 C16.0890566,7.79227778 16.0569057,7.76312222 16.0188679,7.74398889 L2.4674717,0.927511111" id="Fill-3" fill="#00C860"></path>
                    <path d="M16.077283,39.0834778 C16.077283,40.4364778 15.0928302,41.0482889 13.8901132,40.4433111 L1.59260377,34.2573222 C0.870792453,33.8942444 0.280301887,32.9330222 0.280301887,32.1212222 L0.280301887,1.79534444 C0.280301887,0.712944444 1.06777358,0.223222222 2.03003774,0.707477778 L15.9921509,7.73032222 C16.0442264,7.75674444 16.077283,7.81004444 16.077283,7.86835556 L16.077283,39.0834778" id="Fill-4" fill="#00AC68"></path>
                </g>
            </g>
        </g>
    </g>
</svg>