<?xml version="1.0" encoding="UTF-8"?>
<svg xmlns="http://www.w3.org/2000/svg" xmlns:xlink="http://www.w3.org/1999/xlink" width="56px" height="58px" viewBox="0 0 56 58" version="1.1">
    <!-- Generator: Sketch 52.6 (67491) - http://www.bohemiancoding.com/sketch -->
    <title>063 - Add package</title>
    <desc>Created with Sketch.</desc>
    <g id="Page-1" stroke="none" stroke-width="1" fill="none" fill-rule="evenodd">
        <g id="063---Add-package">
            <path d="M45,47.18 L45,39.03 L54.06,33.73 C54.6694804,33.3667206 55.0428375,32.7095338 55.0428375,32 C55.0428375,31.2904662 54.6694804,30.6332794 54.06,30.27 L45.06,25 L54.06,19.73 C54.6719661,19.3709394 55.0478859,18.7145259 55.0478859,18.005 C55.0478859,17.2954741 54.6719661,16.6390606 54.06,16.28 L40.95,8.59 C40.3247895,8.2299848 39.5552105,8.2299848 38.93,8.59 L31,13.24 L25,13.24 L17.07,8.59 C16.4447895,8.2299848 15.6752105,8.2299848 15.05,8.59 L1.94,16.27 C1.32689032,16.6305733 0.950422724,17.2887219 0.950422724,18 C0.950422724,18.7112781 1.32689032,19.3694267 1.94,19.73 L10.94,25 L1.94,30.27 C1.33051961,30.6332794 0.957162451,31.2904662 0.957162451,32 C0.957162451,32.7095338 1.33051961,33.3667206 1.94,33.73 L11,39.03 L11,47.18 L45,47.18 Z" id="Path" fill="#FAC176"/>
            <path d="M28,35 L28,57.32 L27.95,58 C27.6112716,57.9906109 27.2806633,57.8941835 26.99,57.72 L11.99,48.9 C11.3787577,48.5423747 11.0022111,47.8881724 11,47.18 L11,39.03 L15.05,41.41 C15.6752105,41.7700152 16.4447895,41.7700152 17.07,41.41 L28,35 Z" id="Path" fill="#F29C1F"/>
            <path d="M45,39.03 L45,47.18 C44.9977889,47.8881724 44.6212423,48.5423747 44.01,48.9 L29.01,57.72 C28.7056898,57.904904 28.356077,58.0018263 28,58 L27.95,58.0000253 L28,57.32 L28,35 L38.93,41.41 C39.5552105,41.7700152 40.3247895,41.7700152 40.95,41.41 L45,39.03 Z" id="Path" fill="#E57E25"/>
            <path d="M45.06,25 L45,25.03 L28,35 L11,25.03 L10.94,25 L25,16.76 L25,23 L22.66,23 C22.2443682,23.0005971 21.8724369,23.2582244 21.7257683,23.6471183 C21.5790997,24.0360123 21.6882754,24.4750856 22,24.75 L27.34,29.42 C27.7175063,29.7516459 28.2824937,29.7516459 28.66,29.42 L34,24.75 C34.3117246,24.4750856 34.4209003,24.0360123 34.2742317,23.6471183 C34.1275631,23.2582244 33.7556318,23.0005971 33.34,23 L31,23 L31,16.76 L45.06,25 Z" id="Path" fill="#D25627"/>
            <path d="M34,24.75 L28.66,29.42 C28.2824937,29.7516459 27.7175063,29.7516459 27.34,29.42 L22,24.75 C21.6882754,24.4750856 21.5790997,24.0360123 21.7257683,23.6471183 C21.8724369,23.2582244 22.2443682,23.0005971 22.66,23 L25,23 L25,1 C25,0.44771525 25.4477153,0 26,0 L30,0 C30.5522847,0 31,0.44771525 31,1 L31,23 L33.34,23 C33.7556318,23.0005971 34.1275631,23.2582244 34.2742317,23.6471183 C34.4209003,24.0360123 34.3117246,24.4750856 34,24.75 Z" id="Path" fill="#4FBA6F"/>
        </g>
    </g>
</svg>
